<?xml version="1.0" encoding="UTF-8"?>
<svg version="1.1" xmlns="http://www.w3.org/2000/svg" width="50" height="50">
<path d="M0 0 C5.56340585 3.36669624 9.53349183 8.25193794 11.5 14.4375 C12.30594257 22.2813829 12.59671889 30.02934467 7.5 36.4375 C3.04867668 41.14197914 -1.19064516 44.09747071 -7.76953125 44.7734375 C-16.04371997 44.8646634 -22.08428015 44.61560264 -28.2421875 38.7890625 C-34.17397269 32.28964236 -34.96296445 26.57688134 -34.80859375 17.88671875 C-34.22339005 11.3457711 -31.85547257 7.43687235 -27.0625 3.0625 C-19.84507341 -2.93248543 -8.52200107 -3.84066973 0 0 Z M-27.875 9 C-32.43649379 14.47623185 -32.12226676 20.59256568 -31.5 27.4375 C-29.77883043 33.09869631 -25.25380196 37.15064853 -20.5 40.4375 C-15.0029273 42.26985757 -8.53352755 42.6147627 -3.07421875 40.49609375 C2.22187345 37.31444891 6.09461411 33.17185878 8.5 27.4375 C9.43256519 20.56596704 9.16717526 14.80751171 5 9.125 C1.23402845 4.888282 -2.30028498 1.7228547 -8.171875 1.19921875 C-17.12574998 0.98332583 -21.76625484 2.19969878 -27.875 9 Z " fill="#EEEEEE" transform="translate(36.5,3.5625)"/>
<path d="M0 0 C3.28051776 1.31220711 5.84393715 2.38326609 8.76953125 4.1640625 C9.43017578 4.56367188 10.09082031 4.96328125 10.77148438 5.375 C11.44501953 5.7875 12.11855469 6.2 12.8125 6.625 C13.50537109 7.04523437 14.19824219 7.46546875 14.91210938 7.8984375 C16.61010748 8.9289467 18.30533614 9.96401681 20 11 C18.8442468 14.46725961 18.28847149 14.71790649 15.25390625 16.48046875 C14.49916016 16.92197266 13.74441406 17.36347656 12.96679688 17.81835938 C12.17337891 18.27017578 11.37996094 18.72199219 10.5625 19.1875 C9.77294922 19.65091797 8.98339844 20.11433594 8.16992188 20.59179688 C2.28211294 24 2.28211294 24 0 24 C0 16.08 0 8.16 0 0 Z M2 5 C2 9.62 2 14.24 2 19 C5.23396985 17.70641206 7.88479853 16.59717733 10.8125 14.875 C12.3903125 13.946875 12.3903125 13.946875 14 13 C14 12.34 14 11.68 14 11 C11.82248821 9.40222476 11.82248821 9.40222476 9.125 7.875 C8.22007813 7.33617187 7.31515625 6.79734375 6.3828125 6.2421875 C4.15227978 4.8459107 4.15227978 4.8459107 2 5 Z " fill="#EEEEEE" transform="translate(18,13)"/>
</svg>
