<?xml version="1.0" encoding="UTF-8"?>
<svg version="1.1" xmlns="http://www.w3.org/2000/svg" width="50" height="50">
<path d="M0 0 C5.56340585 3.36669624 9.53349183 8.25193794 11.5 14.4375 C12.30594257 22.2813829 12.59671889 30.02934467 7.5 36.4375 C3.04867668 41.14197914 -1.19064516 44.09747071 -7.76953125 44.7734375 C-16.04371997 44.8646634 -22.08428015 44.61560264 -28.2421875 38.7890625 C-34.17397269 32.28964236 -34.96296445 26.57688134 -34.80859375 17.88671875 C-34.22339005 11.3457711 -31.85547257 7.43687235 -27.0625 3.0625 C-19.84507341 -2.93248543 -8.52200107 -3.84066973 0 0 Z M-27.875 9 C-32.43649379 14.47623185 -32.12226676 20.59256568 -31.5 27.4375 C-29.77883043 33.09869631 -25.25380196 37.15064853 -20.5 40.4375 C-15.0029273 42.26985757 -8.53352755 42.6147627 -3.07421875 40.49609375 C2.22187345 37.31444891 6.09461411 33.17185878 8.5 27.4375 C9.43256519 20.56596704 9.16717526 14.80751171 5 9.125 C1.23402845 4.888282 -2.30028498 1.7228547 -8.171875 1.19921875 C-17.12574998 0.98332583 -21.76625484 2.19969878 -27.875 9 Z " fill="#EEEEEE" transform="translate(36.5,3.5625)"/>
<path d="M0 0 C0.86044922 0.35964844 0.86044922 0.35964844 1.73828125 0.7265625 C1.12339844 1.41492188 1.12339844 1.41492188 0.49609375 2.1171875 C-0.04273438 2.73078125 -0.5815625 3.344375 -1.13671875 3.9765625 C-1.67039062 4.57984375 -2.2040625 5.183125 -2.75390625 5.8046875 C-4.24146745 7.70074996 -5.26494311 9.53946255 -6.26171875 11.7265625 C-5.75640625 12.19707031 -5.25109375 12.66757812 -4.73046875 13.15234375 C-4.08078125 13.77496094 -3.43109375 14.39757813 -2.76171875 15.0390625 C-2.11203125 15.65394531 -1.46234375 16.26882812 -0.79296875 16.90234375 C0.73828125 18.7265625 0.73828125 18.7265625 0.73828125 21.7265625 C-3.00752023 21.1515862 -4.88689681 19.59019188 -7.57421875 16.9765625 C-8.65123047 15.96335937 -8.65123047 15.96335937 -9.75 14.9296875 C-11.26171875 12.7265625 -11.26171875 12.7265625 -11.23046875 10.234375 C-10.0829946 7.26389756 -8.6990561 5.59722575 -6.44921875 3.3515625 C-5.41861328 2.28808594 -5.41861328 2.28808594 -4.3671875 1.203125 C-2.26171875 -0.2734375 -2.26171875 -0.2734375 0 0 Z " fill="#ECECEC" transform="translate(28.26171875,14.2734375)"/>
</svg>
